<svg xmlns="http://www.w3.org/2000/svg"
shape-rendering="geometricPrecision"
width="4000" height="4000" viewBox="0 0 518 518">
  <metadata>null</metadata>

<path d="
M 22.296 420.258
C 28.992 404.563 34.924 388.491 41.415 372.7
C 43.103 368.593 44.816 364.489 46.413 360.345
C 47.236 358.209 47.903 355.469 49.188 353.59
C 51.809 353.623 54.448 353.556 57.074 353.542
C 58.161 353.537 59.639 353.279 60.611 353.731
C 66.09 368.534 72.014 383.322 78.08 397.896
C 81.144 405.258 84.454 412.7 86.864 420.306
C 82.496 420.2 77.956 419.954 73.599 420.304
C 72.777 419.502 72.381 417.51 71.955 416.413
C 70.744 413.3 69.683 410.114 68.326 407.063
C 67.25 406.137 63.458 406.791 62 406.786
C 57.166 406.771 52.332 406.76 47.498 406.76
C 45.649 406.76 42.787 406.246 41.109 407.061
C 38.8 411.127 38.127 416.165 35.638 420.117
C 34.721 420.582 33.031 420.299 32.001 420.3
C 28.984 420.301 25.234 420.892 22.296 420.258 Z
M 45.367 395.236
C 45.357 395.336 45.347 395.435 45.337 395.534
C 51.465 395.34 57.728 395.124 63.862 395.345
C 61.328 387.098 57.884 378.985 54.75 370.943
C 53.06 375.619 50.974 380.157 49.271 384.832
C 48.046 388.196 47.128 392.125 45.367 395.236 Z"
opacity="1" fill="rgb(15,42,88)" fill-rule="evenodd" />
<path d="
M 51.872 462.012
C 54.297 455.927 56.6 449.796 59.032 443.714
C 59.795 443.25 63.065 443.087 63.755 443.74
C 66.913 449.82 69.559 456.817 71.854 463.24
C 70.591 463.203 69.325 463.257 68.063 463.326
C 67.148 462.685 66.608 459.879 66.262 458.778
C 63.157 458.658 60.022 458.908 56.919 458.774
C 56.205 460.21 55.707 461.717 55.162 463.223
C 54.361 463.718 52.532 463.32 51.677 463.105
C 51.753 462.308 51.677 462.67 51.872 462.012 Z
M 57.95 455.588
C 57.745 456.134 57.69 455.915 57.877 456.259
C 60.23 456.187 62.609 456.408 64.958 456.22
C 65.164 455.635 64.375 454.227 64.171 453.611
C 63.41 451.307 62.601 448.873 61.318 446.805
C 59.571 449.446 59.198 452.728 57.95 455.588 Z"
opacity="1" fill="rgb(17,46,91)" fill-rule="evenodd" />
<path d="
M 87.434 443.4
C 88.483 443.377 89.574 443.229 90.613 443.399
C 91.019 446.031 90.597 449.063 90.595 451.737
C 91.64 451.582 92.552 450.366 93.245 449.623
C 95.483 447.223 98.985 441.186 103.079 443.506
C 102.305 444.841 100.877 445.784 99.793 446.862
C 97.991 448.653 96.525 450.804 94.73 452.57
C 95.203 453.899 96.713 455.119 97.625 456.208
C 99.721 458.712 101.917 461.167 104.274 463.426
C 104.534 463.636 103.12 463.395 103.004 463.385
C 101.89 463.291 100.794 463.471 99.69 463.208
C 97.485 461.836 95.58 458.856 93.908 456.867
C 93.068 455.869 92.182 454.504 90.844 454.299
C 90.576 456.937 90.046 460.652 90.879 463.213
C 89.724 463.163 88.41 462.999 87.272 463.186
C 86.648 461.707 87.158 459.151 87.139 457.513
C 87.086 452.924 87.331 448.257 87.016 443.683
C 87.156 443.588 87.295 443.494 87.434 443.4 Z"
opacity="1" fill="rgb(19,45,90)" fill-rule="evenodd" />
<path d="
M 93.79 350.73
C 97.684 350.55 101.813 350.199 105.695 350.65
C 105.214 365.391 105.652 380.242 105.681 394.999
C 105.692 400.666 105.718 406.332 105.715 411.999
C 105.714 414.702 105.408 417.623 105.707 420.297
C 101.827 420.305 97.871 420.092 94.002 420.392
C 93.563 417.77 93.786 414.923 93.781 412.267
C 93.774 407.846 93.757 403.425 93.754 399.003
C 93.744 382.939 94.329 366.784 93.79 350.73 Z"
opacity="1" fill="rgb(17,44,88)" fill-rule="evenodd" />
<path d="
M 108.978 444.602
C 109.045 443.978 109.036 444.346 108.921 443.5
C 110.051 443.302 111.323 443.221 112.457 443.424
C 112.375 448.027 112.51 452.637 112.503 457.243
C 112.5 459.054 112.87 461.486 112.359 463.221
C 111.253 463.197 110.05 463.23 108.957 463.395
C 108.754 461.489 109.08 459.428 109.087 457.502
C 109.102 453.198 109.033 448.902 108.978 444.602 Z"
opacity="1" fill="rgb(17,42,88)" fill-rule="evenodd" />
<path d="
M 118.195 350.72
C 121.95 350.355 126 350.369 129.764 350.653
C 130.433 351.855 129.907 354.589 129.909 356.005
C 129.915 360.503 129.877 365.002 129.841 369.5
C 129.75 380.832 129.831 392.165 129.808 403.497
C 129.801 407.163 129.8 410.83 129.792 414.497
C 129.787 416.38 129.516 418.577 129.836 420.409
C 126.046 420.467 122.192 420.2 118.413 420.486
C 117.83 418.276 118.187 415.534 118.198 413.254
C 118.221 408.503 118.224 403.753 118.221 399.002
C 118.209 382.926 118.664 366.789 118.195 350.72 Z"
opacity="1" fill="rgb(17,45,90)" fill-rule="evenodd" />
<path d="
M 119.461 150.6
C 120.28 147.311 120.704 142.834 122.763 140.069
C 127.198 140.061 132.022 141.499 136.36 142.405
C 142.855 143.763 149.545 144.692 155.896 146.585
C 155.49 150.673 153.032 154.723 152.234 158.796
C 150.846 159.397 148.834 157.515 147.378 158.334
C 146.772 160.53 146.376 162.804 145.964 165.045
C 145.828 165.788 145.925 166.783 145.524 167.433
C 144.418 167.355 143.318 167.22 142.215 167.127
C 142.622 163.848 143.122 160.673 143.883 157.456
C 142.6 156.767 140.02 156.38 138.62 156.548
C 137.028 163.629 137.103 170.663 139.953 177.452
C 147.171 194.651 168.196 200.3 183.757 191.077
C 187.663 188.762 190.183 185.177 192.616 181.474
C 193.644 181.156 195.176 182.283 196.027 182.835
C 194.397 187.373 190.804 191.047 186.881 193.751
C 170.681 204.918 148.631 200.06 138.385 183.382
C 135.076 177.995 133.192 171.573 133.212 165.247
C 133.219 162.874 133.455 160.544 133.827 158.204
C 133.939 157.502 134.491 156.001 134.208 155.346
C 129.43 154.204 124.417 153.864 119.702 152.491
C 119.178 151.937 119.34 151.317 119.461 150.6 Z"
opacity="1" fill="rgb(15,43,88)" fill-rule="evenodd" />
<path d="
M 119.817 443.822
C 121.656 442.927 124.466 443.351 126.485 443.391
C 128.661 443.435 130.912 443.416 132.867 444.522
C 138.372 447.635 139.319 456.51 134.527 460.737
C 132 462.967 128.719 463.207 125.512 463.233
C 124.303 463.243 120.814 463.818 119.886 463.122
C 119.754 456.696 119.635 450.246 119.817 443.822 Z
M 123.329 446.387
C 123.048 451.006 122.865 455.967 123.412 460.571
C 126.265 460.485 129.203 460.952 131.642 459.068
C 135.203 456.317 134.726 449.546 130.98 447.206
C 128.842 445.871 125.727 446.25 123.329 446.387 Z"
opacity="1" fill="rgb(17,44,88)" fill-rule="evenodd" />
<path d="
M 135.467 241.597
C 136.428 237.351 137.214 233.369 139.129 229.404
C 144.673 217.924 156.302 208.886 168.868 206.555
C 176.247 205.187 184.517 206.279 191.159 209.811
C 192.76 210.663 194.387 211.595 195.832 212.697
C 196.157 212.944 196.914 213.374 196.819 213.805
C 194.125 217.025 190.867 220.07 187.66 222.778
C 186.322 223.909 184.778 225.438 182.986 225.764
C 180.928 226.139 178.91 225.019 177.072 224.266
C 175.002 223.418 172.943 222.758 170.714 222.474
C 160.1 221.117 149.762 227.643 145.106 236.972
C 137.155 252.903 151.18 276.038 169.796 272.005
C 176.27 270.603 182.309 266.577 185.499 260.68
C 186.791 258.292 187.069 255.436 188.392 253.125
C 190.282 251.3 193.001 250.193 195.104 248.576
C 199.318 245.336 203.198 241.691 207.164 238.158
C 208.839 236.666 210.479 235.147 212.078 233.574
C 212.667 232.996 213.62 231.89 214.431 231.692
C 220.513 238.829 226.156 246.197 230.048 254.777
C 234.197 263.923 234.658 275.9 231.195 285.326
C 226.189 298.953 212.338 309.055 197.709 308.769
C 188.45 308.588 179.918 304.182 173.661 297.472
C 170.475 294.055 168.179 289.867 164.761 286.655
C 160.277 282.442 154.187 280.256 149.361 276.468
C 138.763 268.151 133.667 254.882 135.467 241.597 Z"
opacity="1" fill="rgb(47,141,105)" fill-rule="evenodd" />
<path d="
M 138.82 135.933
C 140.941 133.845 143.313 132.038 145.538 130.063
C 146.937 128.822 148.289 127.253 149.886 126.279
C 151.636 129.549 153.584 133.105 156.271 135.716
C 157.448 136.86 158.953 137.547 160.169 138.629
C 160.198 139.549 159.752 140.5 159.017 141.059
C 156.995 141.445 154.865 140.996 152.818 141.088
C 151.895 141.13 151.02 141.886 150.163 141.817
C 146.933 139.064 141.979 139.14 138.511 136.587
C 138.614 136.369 138.717 136.151 138.82 135.933 Z"
opacity="1" fill="rgb(15,41,83)" fill-rule="evenodd" />
<path d="
M 140.881 356.562
C 141.177 355.518 141.711 354.54 142.389 353.699
C 147.456 347.416 158.126 353.079 155.908 360.797
C 153.146 370.408 138.158 366.178 140.881 356.562 Z"
opacity="1" fill="rgb(20,45,87)" fill-rule="evenodd" />
<path d="
M 142.411 373.602
C 142.449 373.361 142.487 373.12 142.526 372.88
C 146.442 372.799 150.36 372.784 154.279 372.942
C 155.097 377.708 154.399 383.166 154.404 388.01
C 154.414 398.783 154.304 409.569 154.313 420.334
C 150.463 420.18 146.455 420.137 142.609 420.395
C 141.623 413.836 142.408 406.633 142.409 400
C 142.412 391.283 141.748 382.288 142.411 373.602 Z"
opacity="1" fill="rgb(14,42,87)" fill-rule="evenodd" />
<path d="
M 143.862 444.055
C 143.882 443.833 143.902 443.61 143.922 443.388
C 145.082 443.309 146.355 443.055 147.493 443.379
C 150.222 448.307 154.025 453.25 157.618 457.588
C 158.056 457.471 157.838 454.954 157.834 454.499
C 157.809 450.915 157.822 447.331 157.817 443.749
C 158.982 443.444 160.117 443.44 161.313 443.48
C 161.341 448.147 161.176 452.819 161.203 457.49
C 161.211 459.031 160.706 461.737 161.252 463.124
C 160.105 463.144 158.875 463.226 157.757 462.935
C 155.283 459.932 152.767 456.645 150.635 453.389
C 149.776 452.076 148.902 450.769 148.017 449.475
C 147.772 449.116 147.724 448.364 147.291 448.394
C 147.021 448.412 147.176 448.923 147.119 449.187
C 147.788 453.748 146.333 458.671 147.258 463.189
C 146.143 463.202 145.006 463.354 143.897 463.196
C 143.785 456.857 143.431 450.386 143.862 444.055 Z"
opacity="1" fill="rgb(19,46,91)" fill-rule="evenodd" />
<path d="
M 147.41 245.098
C 149.281 234.358 159.242 225.361 170.543 226.935
C 175.219 227.586 179.901 231.699 184.753 229.998
C 189.031 228.498 192.535 224.262 195.607 221.114
C 196.883 219.806 198.541 217.453 200.378 217.029
C 201.725 218.206 203.052 219.38 204.36 220.603
C 203.502 221.967 201.993 223.11 200.87 224.266
C 197.707 227.524 194.248 230.572 190.822 233.551
C 188.9 235.223 186.553 237.194 183.934 237.562
C 179.928 238.125 175.804 234.182 171.985 233.2
C 162.751 230.826 155.708 238.358 153.989 246.736
C 153.914 247.047 155.21 245.881 155.375 245.73
C 156.433 244.768 157.284 243.621 158.334 242.652
C 161.359 239.861 164.657 237.246 168.966 237.169
C 174.177 237.076 177.582 241.73 182.485 241.893
C 186.747 242.035 190.556 239.405 193.585 236.684
C 198.168 232.567 202.266 227.56 207.065 223.746
C 208.258 225.105 209.648 226.301 210.903 227.608
C 209.115 230.495 205.861 233.038 203.395 235.343
C 199.281 239.19 195.142 243.74 190.155 246.463
C 188.144 247.561 185.855 247.399 183.81 248.295
C 184.031 260.219 172.474 271.56 160.208 267.166
C 158.487 266.549 156.795 265.642 155.359 264.506
C 152.043 261.883 149.672 258.053 148.392 254.057
C 147.481 251.213 147.04 248.074 147.41 245.098 Z
M 156.926 252.48
C 156.58 252.92 156.712 252.67 156.551 253.243
C 157.129 254.09 157.994 256.051 159.048 256.364
C 162.202 254.13 164.591 250.401 168.075 248.635
C 169.677 247.823 171.859 249.241 172.669 250.637
C 173.217 254.246 167.884 256.662 166.036 259.092
C 166.691 260.382 168.828 259.651 169.935 259.289
C 173.125 258.246 175.696 254.957 176.534 251.788
C 177.739 247.235 171.764 242.695 167.456 243.848
C 165.943 244.253 164.696 245.494 163.55 246.497
C 161.315 248.453 159.061 250.417 156.926 252.48 Z"
opacity="1" fill="rgb(47,145,109)" fill-rule="evenodd" />
<path d="
M 152.487 167.079
C 154.533 160.352 157.172 153.81 159.115 147.033
C 159.735 146.681 160.818 147.173 161.515 147.344
C 163.442 147.82 165.392 148.215 167.314 148.709
C 167.828 148.841 169.076 148.981 169.311 149.476
C 168.895 151.709 168.439 153.965 167.895 156.172
C 167.63 157.244 167.562 158.49 166.906 159.414
C 166.404 159.452 165.897 159.396 165.389 159.428
C 164.329 161.964 164.423 165.164 163.756 167.841
C 163.205 168.417 162.313 168.524 161.697 169.084
C 161.341 169.654 161.083 170.278 160.818 170.895
C 159.917 171.18 158.945 170.642 158.094 170.343
C 156.126 169.652 154.278 168.889 152.207 168.561
C 152.254 168.048 152.363 167.578 152.487 167.079 Z"
opacity="1" fill="rgb(14,42,86)" fill-rule="evenodd" />
<path d="
M 157.481 111.114
C 158.371 94.436 169.041 79.61 185.772 75.876
C 207.817 70.956 230.226 89.129 228.864 111.804
C 227.79 129.684 213.904 144.894 196.015 147.159
C 184.208 148.655 170.946 143.102 163.907 133.426
C 159.349 127.159 157.069 118.825 157.481 111.114 Z
M 167.394 106.553
C 166.93 108.797 168.647 110.004 170.72 110.202
C 174.873 110.598 180.551 109.148 184.297 111.39
C 184.012 112.764 182.615 114.011 181.69 115.009
C 179.376 117.507 176.876 119.823 174.571 122.329
C 173.466 123.53 171.559 125.228 171.543 126.946
C 172.47 129.271 174.444 129.46 176.15 127.783
C 180.407 123.598 184.015 117.485 189.604 114.896
C 190.843 114.963 192.465 117.257 193.238 118.143
C 196.186 121.525 198.944 125.075 201.843 128.501
C 203.177 130.078 205.946 132.731 207.32 129.477
C 207.562 128.077 206.134 126.307 205.321 125.29
C 202.788 122.12 199.968 119.192 197.567 115.914
C 196.734 114.777 194.864 112.961 195.154 111.398
C 195.443 109.835 197.956 109.208 199.201 108.798
C 202.02 107.87 204.974 107.218 207.914 106.82
C 209.457 106.612 211.472 106.55 212.566 105.297
C 212.909 104.441 212.915 103.633 212.57 102.776
C 210.951 101.02 208.239 101.62 206.165 102.134
C 203.105 102.893 200.043 103.643 196.947 104.245
C 195.712 104.486 194.391 104.973 193.127 104.834
C 191.45 103.695 190.295 101.406 189.225 99.726
C 187.679 97.297 185.932 95.004 184.358 92.595
C 183.427 91.17 182.383 88.829 180.749 88.153
C 179.537 88.207 178.229 88.743 177.709 89.888
C 178.399 94.067 182.23 97.912 184.391 101.466
C 185.095 102.624 186.43 104.083 186.484 105.475
C 185.534 106.2 183.433 105.89 182.313 105.842
C 179.083 105.704 175.889 105.615 172.668 105.312
C 170.695 105.127 168.673 104.708 167.394 106.553 Z"
opacity="1" fill="rgb(16,43,88)" fill-rule="evenodd" />
<path d="
M 164.751 385.784
C 169.995 385.643 175.257 385.76 180.505 385.747
C 182.114 385.743 185.521 385.086 186.888 385.922
C 186.68 389.589 186.508 393.622 186.873 397.276
C 179.571 397.324 172.253 397.189 164.954 397.408
C 164.362 396.887 164.695 395.272 164.711 394.503
C 164.774 391.603 164.787 388.683 164.751 385.784 Z"
opacity="1" fill="rgb(14,41,84)" fill-rule="evenodd" />
<path d="
M 169.349 443.383
C 172.642 443.352 175.938 443.418 179.233 443.356
C 179.912 443.343 182.336 442.955 182.759 443.477
C 182.786 444.378 182.663 445.278 182.677 446.168
C 179.35 446.387 175.962 445.573 172.619 446.084
C 172.622 447.943 172.705 449.82 172.668 451.678
C 175.17 452.386 178.483 451.862 181.065 451.759
C 181.199 452.635 180.916 453.782 181.23 454.587
C 178.733 453.86 175.437 454.412 172.849 454.379
C 172.413 455.893 172.264 459.072 172.806 460.565
C 175.956 460.936 179.405 460.236 182.603 460.332
C 182.609 461.25 182.533 462.327 182.662 463.22
C 178.374 462.717 173.658 463.162 169.332 463.183
C 168.682 458.807 169.157 453.936 169.146 449.51
C 169.142 447.635 168.716 445.149 169.349 443.383 Z"
opacity="0.996" fill="rgb(16,45,90)" fill-rule="evenodd" />
<path d="
M 186.979 443.72
C 188.008 443.455 189.895 442.926 190.851 443.583
C 191.959 446.019 193.424 448.368 194.753 450.691
C 195.087 451.275 195.514 452.571 196.107 452.862
C 196.777 452.552 197.284 450.877 197.647 450.241
C 198.948 447.958 200.176 445.633 201.481 443.352
C 202.25 443.264 205.224 442.76 205.748 443.366
C 203.917 446.358 202.046 449.314 200.288 452.357
C 199.578 453.586 198.402 454.789 198.056 456.186
C 197.516 458.365 197.951 461.047 197.908 463.284
C 196.96 463.285 195.255 463.513 194.422 463.091
C 194.495 461.063 195.121 457.522 194.323 455.656
C 193.779 454.384 192.619 453.212 191.887 452.024
C 190.205 449.293 188.527 446.523 186.979 443.72 Z"
opacity="1" fill="rgb(15,46,94)" fill-rule="evenodd" />
<path d="
M 188.407 109.092
C 188.633 107.902 189.299 107.079 190.555 107.088
C 191.875 107.91 192.648 108.683 192.312 110.304
C 191.682 111.302 190.759 111.856 189.582 111.449
C 188.839 110.734 188.443 110.141 188.407 109.092 Z"
opacity="1" fill="rgb(13,43,102)" fill-rule="evenodd" />
<path d="
M 195.448 381.603
C 196.499 376.307 197.927 371.45 201.026 366.94
C 209.376 354.787 224.842 349.677 238.978 353.289
C 246.229 355.141 251.672 359.796 257.277 364.451
C 256.668 365.558 255.012 366.416 254.043 367.225
C 251.544 369.309 249.107 371.682 246.439 373.53
C 244.99 372.685 243.837 370.769 242.534 369.633
C 239.664 367.133 236.317 365.407 232.559 364.697
C 228.65 363.958 224.447 364.55 220.806 366.083
C 217.25 367.58 214.372 370.327 212.2 373.477
C 205.765 382.811 206.972 396.749 216.145 403.973
C 226.521 412.142 243.652 408.874 248.512 395.865
C 241.892 395.741 235.128 395.339 228.517 395.801
C 228.165 395.079 228.386 393.809 228.37 393
C 228.319 390.38 228.424 387.769 228.452 385.153
C 229.362 384.558 230.448 384.738 231.5 384.735
C 233.501 384.73 235.503 384.685 237.505 384.677
C 245.518 384.644 253.597 384.399 261.603 384.757
C 261.955 390.477 261.533 396.468 259.409 401.835
C 251.665 421.402 225.539 426.362 209.206 414.754
C 198.718 407.3 193.823 394.178 195.448 381.603 Z"
opacity="1" fill="rgb(15,43,88)" fill-rule="evenodd" />
<path d="
M 206.97 180.607
C 207.483 173.159 209.541 165.712 213.013 159.096
C 215.936 153.527 219.982 148.726 224.657 144.542
C 234.686 135.566 247.856 130.697 261.332 130.927
C 283.946 131.313 306.143 147.505 312.701 169.141
C 314.542 175.218 315.048 181.646 314.549 187.959
C 313.984 195.116 311.391 202.166 307.956 208.415
C 298.751 225.159 282.168 236.856 262.821 238.029
C 231.545 239.926 204.853 211.347 206.97 180.607 Z
M 243.283 178.169
C 243.346 178.312 243.409 178.456 243.471 178.6
C 246.146 179.427 248.719 181.343 251.169 182.688
C 254.157 184.329 257.614 185.585 260.232 187.79
C 260.28 188.837 259.548 189.617 259.294 190.578
C 259.703 192.108 261.779 193.39 263.054 194.182
C 266.396 196.255 269.869 198.091 273.445 199.723
C 274.85 200.364 276.762 201.339 278.367 201.116
C 280.25 200.855 281.055 198.618 282.373 197.541
C 284.279 198.449 285.779 199.769 287.582 200.816
C 290.013 202.228 292.59 203.062 295.148 204.187
C 296.792 204.911 299.018 206.373 300.873 205.984
C 301.546 205.238 302.167 204.243 301.55 203.299
C 298.585 200.823 294.182 200.959 291.169 198.388
C 288.935 196.48 287.782 193.721 286.039 191.424
C 284.286 189.114 282.219 187.455 279.704 186.046
C 281.381 180.632 285.102 175.561 287.952 170.709
C 289.025 168.883 290.376 167.016 291.034 164.993
C 287.241 162.904 283.719 159.543 279.606 158.073
C 276.003 163.861 271.422 169.623 268.826 175.945
C 265.263 172.112 258.262 173.828 253.723 174.38
C 252.724 174.502 249.297 174.562 248.92 175.281
C 250.241 176.672 251.664 178.1 253.67 178.421
C 255.175 178.662 257.044 177.832 258.533 177.556
C 261.405 177.024 264.764 176.673 267.624 177.381
C 267.403 178.354 266.911 179.118 266.31 179.905
C 265.253 181.288 263.386 182.871 261.568 182.965
C 259.039 183.095 256.399 181.161 254.25 180.053
C 252.836 179.324 251.323 178.82 249.946 178.012
C 248.604 177.225 246.138 175.105 244.584 175.525
C 244.113 176.395 243.739 177.296 243.283 178.169 Z
M 251.919 190.103
C 251.17 197.137 254.118 205.304 259.7 209.794
C 269.57 217.733 286.404 216.692 292.546 204.449
C 291.545 203.718 290.575 203.408 289.384 203.133
C 288.108 203.894 287.202 205.629 286.032 206.634
C 283.304 208.979 280.012 210.521 276.457 211.076
C 266.824 212.582 257.771 205.396 256.009 196.024
C 255.434 192.964 255.954 190.644 256.65 187.719
C 256.163 186.764 254.254 186.585 253.306 186.597
C 252.484 187.622 252.174 188.838 251.919 190.103 Z
M 280.392 154.035
C 280.252 154.573 280.131 155.107 280.022 155.652
C 281.818 157.131 283.882 158.119 285.845 159.36
C 287.856 160.632 289.874 162.224 292.17 162.911
C 293.096 162.229 294.146 160.208 293.924 159.077
C 291.88 156.413 287.319 154.729 284.465 152.971
C 283.784 152.552 282.062 151.243 281.498 151.835
C 281.097 152.557 280.739 153.286 280.392 154.035 Z"
opacity="1" fill="rgb(17,43,88)" fill-rule="evenodd" />
<path d="
M 220.885 443.824
C 221.906 443.271 223.333 443.428 224.474 443.413
C 227.525 443.373 232.092 442.856 234.463 445.206
C 237.828 448.54 235.435 454.257 231.274 455.46
C 232.597 457.306 233.901 459.073 235.074 461.046
C 235.448 461.675 236.299 462.557 236.427 463.27
C 235.054 463.194 233.691 463.303 232.319 463.102
C 230.614 460.835 229.583 458.105 227.722 455.916
C 226.688 455.289 225.467 455.461 224.327 455.658
C 224.215 457.592 224.182 459.514 224.147 461.452
C 224.141 461.798 224.303 463.066 224.002 463.285
C 222.944 463.246 221.888 463.274 220.83 463.204
C 220.665 456.759 220.863 450.273 220.885 443.824 Z
M 224.321 446.292
C 224.199 448.437 224.243 450.564 224.199 452.71
C 225.863 452.987 229.652 453.351 231.11 452.375
C 232.983 451.122 233.124 447.756 231.09 446.557
C 229.487 445.612 226.078 446.062 224.321 446.292 Z"
opacity="1" fill="rgb(13,43,90)" fill-rule="evenodd" />
<path d="
M 242.429 444.592
C 242.572 443.956 242.459 444.318 242.843 443.53
C 247.083 443.137 251.831 443.009 256.078 443.372
C 256.169 444.337 256.087 445.305 256.162 446.265
C 253.277 445.586 248.746 445.782 245.838 446.296
C 245.753 448.072 245.81 449.833 245.788 451.609
C 248.557 451.772 251.421 451.52 254.221 451.623
C 254.386 452.534 254.333 453.418 254.38 454.335
C 251.7 454.164 248.66 454.045 246.017 454.527
C 245.929 456.531 245.736 458.494 246.009 460.499
C 249.361 460.549 252.765 460.514 256.109 460.249
C 256.195 461.234 256.218 462.223 256.308 463.207
C 251.79 463.127 247.246 463.115 242.728 463.101
C 242.012 457.173 241.882 450.537 242.429 444.592 Z"
opacity="0.996" fill="rgb(14,44,93)" fill-rule="evenodd" />
<path d="
M 242.94 326.583
C 244.237 322.236 246.561 318.701 250.401 316.152
C 252.077 315.039 253.824 314.092 255.608 313.171
C 256.199 312.866 257.634 312.806 257.422 311.981
C 247.279 310.008 242.203 297.788 246.701 288.818
C 249.055 284.125 252.99 282.141 257.458 279.969
C 257.296 279.426 256.16 279.536 255.705 279.428
C 254.331 279.102 253.047 278.102 251.981 277.215
C 248.83 274.592 246.082 270.522 245.228 266.479
C 244.671 263.835 244.823 261.11 245.505 258.5
C 246.068 256.348 247.092 254.347 248.418 252.568
C 249.633 250.938 251.088 249.523 252.801 248.419
C 260.811 243.256 270.988 248.259 274.584 256.368
C 276.997 261.809 276.297 267.788 273.038 272.67
C 270.816 275.998 268.011 277.606 264.615 279.469
C 265.507 280.625 267.466 281.286 268.638 282.227
C 271.318 284.38 273.701 287.181 275.084 290.348
C 275.948 292.326 276.415 294.502 276.399 296.663
C 276.385 298.604 276.089 300.515 275.508 302.367
C 271.79 314.227 258.284 314.01 250.464 321.442
C 248.489 323.319 247.003 325.905 246.549 328.593
C 246.332 329.874 246.848 332.063 246.295 333.15
C 245.235 333.248 243.994 333.425 242.968 333.092
C 242.431 330.945 242.472 328.743 242.94 326.583 Z
M 249.413 260.072
C 247.582 266.532 251.726 271.866 257.001 274.936
C 258.199 275.634 259.622 276.85 261.055 276.977
C 262.133 277.073 263.51 275.725 264.37 275.19
C 267.506 273.236 270.302 270.317 271.406 266.718
C 273.49 259.93 267.965 250.416 260.492 250.336
C 255.007 250.278 250.817 255.118 249.413 260.072 Z
M 249.407 294.08
C 248.221 300.646 252.62 305.158 257.873 308.143
C 258.919 308.738 259.957 309.785 261.076 310.167
C 263.39 309.372 266.065 307.739 267.818 306.036
C 270.793 303.144 272.859 297.801 271.6 293.669
C 270.891 291.343 269.255 289.268 267.696 287.449
C 266.07 285.552 263.139 283.021 260.463 283.108
C 257.303 283.211 254.221 286.162 252.332 288.441
C 250.946 290.112 250.027 292.01 249.407 294.08 Z"
opacity="1" fill="rgb(15,38,84)" fill-rule="evenodd" />
<path d="
M 266.322 87.561
C 264.719 86.841 262.638 85.708 261.474 84.395
C 264.981 83.326 267.774 80.775 269.8 77.819
C 271.05 75.649 271.771 73.349 271.57 70.829
C 271.394 68.626 270.661 66.433 269.377 64.624
C 267.439 61.892 264.592 59.087 261.041 58.84
C 251.55 58.178 245.931 71.121 251.66 78.071
C 253.475 80.273 255.632 81.436 258.113 82.756
C 257.253 82.723 257.839 83.803 257.773 84.379
C 257.698 85.025 257.095 84.928 256.866 85.458
C 256.633 85.998 257.044 86.692 256.493 87.519
C 253.224 85.677 250.454 83.799 248.243 80.697
C 246.509 78.267 245.372 75.744 245.109 72.748
C 244.875 70.076 245.084 67.125 246.171 64.643
C 247.976 60.518 251.497 56.43 255.901 55.038
C 267.052 51.512 277.411 63.256 275.691 73.879
C 275.07 77.714 272.84 81.122 270.23 83.916
C 269.091 85.135 266.96 86.004 266.322 87.561 Z"
opacity="1" fill="rgb(52,156,110)" fill-rule="evenodd" />
<path d="
M 258.148 88.351
C 259.225 88.859 260.036 89.635 261.005 90.302
C 260.622 90.726 260.373 91.022 259.875 91.293
C 259.172 91.677 258.417 92.07 257.763 92.531
C 251.921 94.738 247.475 101.022 249.606 107.465
C 250.424 109.935 252.181 112.187 254.101 113.9
C 255.795 115.412 258.141 117.125 260.487 117.264
C 260.022 117.711 259.652 118.238 259.365 118.814
C 259.179 119.482 259.001 120.129 259.022 120.829
C 245.729 118.793 241.223 102.307 249.57 92.665
C 251.979 89.884 254.885 89.415 258.148 88.351 Z"
opacity="1" fill="rgb(55,175,117)" fill-rule="evenodd" />
<path d="
M 252.334 262.23
C 255.829 261.409 260.421 262.036 264.011 262.197
C 265.22 262.251 267.096 262.009 268.082 262.71
C 268.199 263.1 268.245 263.398 268.25 263.805
C 264.374 264.377 259.931 263.758 256.006 263.731
C 255.346 263.726 252.776 264.146 252.307 263.682
C 252.1 263.478 252.334 262.235 252.334 262.23 Z"
opacity="0.996" fill="rgb(17,33,102)" fill-rule="evenodd" />
<path d="
M 252.462 296.016
C 252.545 295.835 252.629 295.654 252.713 295.472
C 253.723 294.998 254.906 295.213 256.002 295.189
C 258.638 295.131 261.269 295.154 263.905 295.171
C 265.086 295.178 267.001 294.805 268.104 295.209
C 268.625 295.4 268.728 296.543 268.302 296.826
C 263.105 296.718 257.82 296.516 252.628 296.79
C 252.29 296.48 252.434 296.701 252.462 296.016 Z"
opacity="1" fill="rgb(5,31,99)" fill-rule="evenodd" />
<path d="
M 252.822 69.902
C 257.864 70.142 263.143 69.542 268.148 70.316
C 268.487 70.799 268.378 71.611 268.279 72.184
C 263.204 72.208 258.06 71.959 252.965 71.918
C 252.629 71.323 252.574 70.542 252.822 69.902 Z"
opacity="0.996" fill="rgb(63,154,139)" fill-rule="evenodd" />
<path d="
M 252.907 99.999
C 253.02 99.827 253.132 99.656 253.245 99.485
C 257.671 98.789 263.433 98.885 267.851 99.621
C 268.079 100.195 268.161 100.724 268.279 101.322
C 263.22 100.903 258 101.421 252.926 101.183
C 252.823 100.487 252.849 100.88 252.907 99.999 Z"
opacity="0.996" fill="rgb(56,149,138)" fill-rule="evenodd" />
<path d="
M 252.795 105.863
C 253.94 105.131 255.689 105.537 257.004 105.555
C 260.23 105.601 264.475 104.85 267.583 105.79
C 268.176 105.969 267.871 106.795 267.803 107.276
C 264.262 107.975 260.115 107.389 256.509 107.376
C 254.685 107.369 252.963 108.047 252.795 105.863 Z"
opacity="1" fill="rgb(62,158,135)" fill-rule="evenodd" />
<path d="
M 253.427 65.591
C 255.623 62.445 263.147 63.605 266.506 64.447
C 266.864 64.909 266.864 65.466 266.974 66.03
C 266.577 66.437 264.259 65.912 263.642 65.914
C 261.216 65.92 258.785 65.795 256.36 65.835
C 255.391 65.851 254.172 66.396 253.254 66.131
C 253.312 65.951 253.369 65.771 253.427 65.591 Z"
opacity="0.996" fill="rgb(72,166,153)" fill-rule="evenodd" />
<path d="
M 253.507 76.149
C 257.681 75.76 262.571 75.846 266.723 76.45
C 267.541 77.664 264.274 78.148 263.741 78.183
C 261.187 78.349 256.895 78.441 254.475 77.538
C 253.882 77.316 253.748 76.664 253.507 76.149 Z"
opacity="0.996" fill="rgb(66,159,145)" fill-rule="evenodd" />
<path d="
M 254.5 256.441
C 257.06 255.084 261.217 255.879 264.014 256.111
C 264.679 256.166 267.003 256.409 266.361 257.581
C 262.285 257.12 258.213 257.76 254.147 257.556
C 254.193 256.685 254.044 257.045 254.5 256.441 Z"
opacity="0.992" fill="rgb(20,43,113)" fill-rule="evenodd" />
<path d="
M 254.061 268.642
C 258.196 268.732 262.404 268.318 266.517 268.927
C 267.006 270.349 264.812 270.175 263.826 270.223
C 261.587 270.333 259.361 270.028 257.128 269.945
C 255.643 269.889 254.675 270.138 254.061 268.642 Z"
opacity="0.996" fill="rgb(12,32,110)" fill-rule="evenodd" />
<path d="
M 255.242 110.877
C 257.645 111.152 260.085 111.119 262.501 111.119
C 263.699 111.119 265.132 110.917 266.259 111.345
C 266.774 112.081 263.643 112.756 263.051 112.838
C 261.067 113.11 255.738 113.568 255.242 110.877 Z"
opacity="0.996" fill="rgb(80,169,155)" fill-rule="evenodd" />
<path d="
M 255.426 301.805
C 257.984 301.853 260.549 301.737 263.113 301.804
C 264.177 301.832 265.593 301.664 266.565 302.13
C 266.539 302.478 266.6 302.993 266.312 303.263
C 265.853 303.694 264.095 303.437 263.498 303.437
C 261.094 303.436 258.358 303.796 255.99 303.384
C 255.105 303.231 254.835 302.459 255.426 301.805 Z"
opacity="0.996" fill="rgb(10,31,100)" fill-rule="evenodd" />
<path d="
M 255.901 289.328
C 258.555 288.839 261.375 288.944 264.06 289.107
C 264.672 289.144 266.724 289.179 266.264 290.224
C 262.919 290.475 259.056 290.747 255.749 290.142
C 255.8 289.871 255.851 289.6 255.901 289.328 Z"
opacity="0.992" fill="rgb(31,62,135)" fill-rule="evenodd" />
<path d="
M 258.113 82.756
C 259.252 83.247 260.451 83.683 261.474 84.395
C 262.638 85.708 264.719 86.841 266.322 87.561
C 270.282 91.037 274.291 93.785 275.772 99.176
C 278.583 109.403 270.581 122.348 259.022 120.829
C 259.001 120.129 259.179 119.482 259.365 118.814
C 259.652 118.238 260.022 117.711 260.487 117.264
C 268.3 116.231 273.7 106.928 271.123 99.717
C 269.617 95.503 265.205 91.718 261.005 90.302
C 260.036 89.635 259.225 88.859 258.148 88.351
C 257.624 88.027 257.052 87.778 256.493 87.519
C 257.044 86.692 256.633 85.998 256.866 85.458
C 257.095 84.928 257.698 85.025 257.773 84.379
C 257.839 83.803 257.253 82.723 258.113 82.756 Z"
opacity="1" fill="rgb(15,49,82)" fill-rule="evenodd" />
<path d="
M 261.331 458.457
C 262.255 458.102 263.137 457.887 264.104 457.683
C 264.387 458.386 264.672 459.047 265.066 459.696
C 267.04 461.898 274.068 461.13 272.932 457.102
C 272.447 455.383 270.238 454.875 268.744 454.537
C 265.708 453.851 261.686 452.613 261.643 448.833
C 261.633 448 261.757 447.106 262.144 446.358
C 263.857 443.047 269.132 442.183 272.358 443.423
C 274.215 444.137 276.08 445.982 275.761 448.15
C 275.15 448.574 274.499 448.697 273.765 448.663
C 272.907 447.887 272.387 446.759 271.428 446.074
C 269.53 444.72 265.091 445.909 265.174 448.546
C 265.256 451.135 267.934 451.547 269.951 451.936
C 273.406 452.602 276.746 454.459 276.314 458.464
C 276.015 461.238 273.487 462.925 270.932 463.324
C 266.952 463.945 262.747 462.88 261.132 458.944
C 261.198 458.781 261.265 458.619 261.331 458.457 Z"
opacity="1" fill="rgb(13,43,89)" fill-rule="evenodd" />
<path d="
M 268.457 393.604
C 269.211 387.734 271.055 382.464 275.299 378.161
C 283.374 369.972 297.816 368.806 306.127 377.424
C 306.343 377.257 306.182 376.484 306.186 376.255
C 306.203 375.103 306.234 373.959 306.36 372.813
C 307.48 372.379 308.766 372.563 309.946 372.514
C 312.648 372.401 315.336 372.381 318.037 372.489
C 317.899 384.647 318.078 396.836 318.12 409.001
C 318.129 411.834 318.126 414.667 318.173 417.5
C 318.181 418.009 318.466 420.179 317.999 420.387
C 314.191 420.374 310.376 420.285 306.569 420.288
C 306.427 418.828 306.151 417.373 306.211 415.899
C 303.065 418.172 300.266 420.214 296.359 421.007
C 285.729 423.164 274.888 417.904 270.438 407.962
C 268.46 403.544 268.01 398.38 268.457 393.604 Z
M 280.469 396.126
C 280.363 399.835 281.697 403.683 284.36 406.307
C 288.933 410.814 297.45 411.137 302.199 406.734
C 305.053 404.087 306.143 400.17 306.233 396.372
C 306.51 384.817 291.245 378.344 283.491 387.432
C 281.431 389.846 280.558 393.005 280.469 396.126 Z"
opacity="1" fill="rgb(15,43,88)" fill-rule="evenodd" />
<path d="
M 282.94 444.597
C 283.06 443.985 283.023 444.343 282.975 443.519
C 284.542 443.031 286.384 443.286 288.011 443.291
C 290.889 443.298 293.766 443.247 296.643 443.258
C 296.689 444.139 296.515 445.364 296.762 446.169
C 293.383 446.108 290.05 445.693 286.659 446.092
C 285.781 447.213 286.347 450.243 286.265 451.66
C 286.87 452.012 287.999 451.821 288.687 451.819
C 290.692 451.815 292.695 451.751 294.699 451.77
C 294.862 452.552 294.708 453.491 294.634 454.283
C 292.055 454.732 288.877 453.46 286.458 454.627
C 286.339 456.64 286.25 458.597 286.326 460.622
C 289.775 460.69 293.233 460.546 296.684 460.574
C 296.962 461.153 297.132 462.581 296.826 463.171
C 293.724 463.205 290.618 463.25 287.512 463.236
C 286.067 463.23 284.359 463.401 282.968 462.986
C 282.296 457.137 282.418 450.459 282.94 444.597 Z"
opacity="0.996" fill="rgb(17,43,95)" fill-rule="evenodd" />
<path d="
M 283.39 193.192
C 284.626 193.848 285.661 195.892 285.744 197.282
C 284.929 197.388 283.922 196.544 283.397 196.009
C 283 195.005 283.154 194.232 283.39 193.192 Z"
opacity="1" fill="rgb(20,45,110)" fill-rule="evenodd" />
<path d="
M 284.945 271.593
C 286.67 256.172 293.319 241.206 303.442 229.471
C 309.767 222.138 317.554 215.773 326.854 212.656
C 349.739 204.986 376.136 217.524 381.961 241.643
C 383.001 245.946 383.071 250.565 382.559 254.948
C 382.113 258.77 380.892 262.534 379.133 265.944
C 377.698 268.725 375.821 271.213 373.508 273.316
C 367.786 278.52 359.257 281.371 351.581 280.041
C 342.193 278.415 332.804 272.866 323.025 275.722
C 318.408 277.071 314.701 280.834 313.591 285.53
C 312.349 290.782 313.142 296.315 308.753 300.315
C 302.662 305.868 294.521 303.27 289.992 297.195
C 284.552 289.9 283.968 280.33 284.945 271.593 Z
M 342.911 257.611
C 342.146 265.721 349.068 273.164 357.047 273.527
C 362.284 273.765 367.548 270.466 370.078 266.005
C 371.066 264.264 371.631 262.403 371.795 260.407
C 372.825 247.831 357.782 239.287 347.917 247.572
C 346.562 248.709 345.478 250.187 344.678 251.754
C 343.745 253.58 343.105 255.56 342.911 257.611 Z"
opacity="1" fill="rgb(47,141,105)" fill-rule="evenodd" />
<path d="
M 288.932 96.099
C 292.065 76.66 313.923 65.357 332.328 69.353
C 350.471 73.291 364.194 89.556 362.116 108.536
C 361.562 113.594 359.833 118.689 356.959 122.908
C 352.583 129.33 346.5 133.365 339.953 137.302
C 334.763 140.422 329.326 143.22 324.481 146.882
C 322.706 148.224 320.97 149.617 319.263 151.043
C 318.435 151.735 317.537 152.764 316.503 153.123
C 314.937 152.813 313.589 151.275 312.609 150.099
C 310.181 147.187 308.549 143.986 307.688 140.28
C 306.752 136.258 305.785 130.629 306.942 126.572
C 307.617 124.204 309.769 122.37 311.458 120.697
C 313.801 118.377 316.22 116.136 318.565 113.818
C 320.592 111.814 322.615 109.578 325.226 108.355
C 325.719 109.115 325.462 110.966 325.514 111.869
C 325.706 115.23 325.575 118.628 325.565 121.994
C 325.561 123.417 325.164 125.564 326.141 126.716
C 327.009 126.914 328.04 127.061 328.863 126.649
C 330.098 125.372 329.608 122.616 329.601 120.998
C 329.587 117.83 329.596 114.662 329.588 111.494
C 329.583 109.628 329.318 107.528 330.086 105.784
C 331.372 104.245 333.632 104.433 335.478 104.312
C 339.328 104.061 343.178 103.727 347.023 103.42
C 348.683 103.288 350.768 103.421 352.025 102.152
C 353.476 99.339 350.083 98.443 348.053 98.45
C 343.793 98.466 339.538 99.13 335.275 99.163
C 333.347 99.177 331.069 99.33 329.835 97.554
C 329.396 96.139 329.611 94.471 329.593 92.998
C 329.553 89.7 329.556 86.403 329.544 83.105
C 329.538 81.452 329.923 78.58 328.647 77.357
C 327.483 76.954 326.593 77.063 325.797 78.052
C 325.233 79.608 325.428 81.371 325.431 83.004
C 325.437 86.17 325.489 89.339 325.42 92.505
C 325.382 94.263 325.683 96.775 323.467 97.323
C 321.821 97.731 319.731 94.923 318.693 93.904
C 315.733 90.997 312.728 88.134 309.793 85.2
C 308.693 84.1 307.38 82.287 305.692 82.282
C 304.63 82.55 303.818 82.984 303.405 84.047
C 303.953 86.061 305.931 87.648 307.358 89.067
C 310.046 91.74 312.866 94.281 315.606 96.9
C 316.444 97.701 317.69 98.571 318.364 99.461
C 317.874 99.802 317.015 99.662 316.445 99.799
C 314.576 100.246 312.67 100.576 310.765 100.861
C 303.671 101.921 296.579 102.735 289.452 103.503
C 288.911 103.114 288.942 102.122 288.895 101.474
C 288.765 99.677 288.802 97.894 288.932 96.099 Z"
opacity="1" fill="rgb(48,143,106)" fill-rule="evenodd" />
<path d="
M 290.335 108.903
C 293.054 107.553 296.129 107.281 299.098 106.838
C 303.246 106.22 307.399 105.584 311.558 105.044
C 314.231 104.698 317.961 103.738 320.588 104.293
C 320.698 107.066 316.098 110.163 314.255 111.866
C 311.728 114.203 309.15 116.466 306.533 118.699
C 304.814 120.165 303.185 121.949 300.921 122.562
C 298.921 123.103 297.146 122.024 295.626 120.833
C 292.468 118.36 289.368 113.081 290.335 108.903 Z"
opacity="1" fill="rgb(51,147,108)" fill-rule="evenodd" />
<path d="
M 301.373 462.023
C 302.714 458.252 304.309 454.573 305.701 450.82
C 306.605 448.381 307.352 445.73 308.612 443.454
C 310.065 443.258 311.518 443.372 312.974 443.444
C 314.488 445.25 315.061 448.396 315.887 450.587
C 317.43 454.675 319.844 458.747 320.869 462.996
C 320.754 463.408 318.096 463.134 317.637 463.108
C 316.596 462.564 315.909 459.88 315.659 458.769
C 315.026 458.517 313.958 458.791 313.259 458.807
C 310.893 458.863 308.494 458.653 306.139 458.929
C 305.591 460.282 305.32 461.811 304.657 463.105
C 303.869 463.569 302.118 463.17 301.217 463.145
C 301.279 462.343 301.221 462.716 301.373 462.023 Z
M 307.45 455.577
C 307.216 456.125 307.19 455.887 307.343 456.289
C 309.189 456.201 311.072 456.21 312.921 456.214
C 313.156 456.214 314.418 456.349 314.423 456.104
C 313.109 452.994 312.414 449.631 310.746 446.674
C 309.434 449.549 308.84 452.756 307.45 455.577 Z"
opacity="1" fill="rgb(20,46,97)" fill-rule="evenodd" />
<path d="
M 323.846 165.563
C 329.515 158.743 335.711 152.011 342.07 145.827
C 343.26 145.84 345.037 148.071 345.957 148.867
C 349.617 152.035 353.153 155.361 356.797 158.554
C 357.862 159.487 358.929 160.418 359.961 161.389
C 360.273 161.682 360.919 162.124 360.89 162.572
C 360.264 163.717 359.14 164.644 358.3 165.638
C 355.493 168.965 352.553 172.124 349.596 175.317
C 347.215 177.888 344.957 181.461 342.155 183.543
C 335.492 178.478 329.872 171.85 323.83 166.135
C 323.835 165.944 323.841 165.754 323.846 165.563 Z"
opacity="1" fill="rgb(17,43,86)" fill-rule="evenodd" />
<path d="
M 324.839 100.927
C 325.536 100.308 326.02 100.199 326.935 100.169
C 328.369 101.517 327.619 105.144 325.371 104.01
C 324.736 103.076 324.498 102.014 324.839 100.927 Z"
opacity="1" fill="rgb(24,134,98)" fill-rule="evenodd" />
<path d="
M 326.244 443.296
C 329.572 443.192 334.061 442.533 337.244 443.675
C 340.796 444.95 342.062 449.222 340.108 452.353
C 339.206 453.442 338.072 454.139 336.761 454.641
C 336.955 455.524 337.775 456.298 338.204 457.095
C 339.275 459.087 340.254 461.437 341.747 463.147
C 341.798 463.201 340.752 463.132 340.518 463.128
C 339.477 463.112 338.271 463.348 337.301 462.92
C 336.229 460.229 334.611 457.715 333.053 455.286
C 332.096 455.046 330.951 454.978 329.963 455.037
C 329.517 455.688 329.688 456.7 329.676 457.494
C 329.649 459.33 329.46 461.379 329.777 463.191
C 328.607 463.243 327.428 463.122 326.259 463.169
C 325.516 462.139 326.125 459.321 326.118 458.01
C 326.092 453.117 326.412 448.181 326.244 443.296 Z
M 329.519 447.107
C 329.358 448.91 329.612 450.806 329.637 452.618
C 331.492 452.827 334.509 452.942 336.129 451.904
C 338.029 450.688 338.01 447.57 336.029 446.378
C 334.439 445.421 331.298 445.78 329.564 446.093
C 329.534 446.868 329.551 446.53 329.519 447.107 Z"
opacity="1" fill="rgb(21,48,98)" fill-rule="evenodd" />
<path d="
M 326.706 372.764
C 329.376 372.778 332.052 372.663 334.724 372.676
C 334.735 369.452 334.739 366.227 334.738 363.002
C 334.737 361.386 334.503 359.592 334.919 358.027
C 337.698 357.913 340.475 357.967 343.257 357.91
C 344.158 357.892 346.012 357.58 346.744 358.151
C 346.545 362.977 346.917 367.831 346.763 372.657
C 350.755 372.769 354.766 372.583 358.763 372.649
C 359.125 376.224 358.364 379.959 358.862 383.513
C 358.676 383.892 356.479 383.638 356.003 383.638
C 352.917 383.635 349.827 383.468 346.746 383.702
C 346.827 389.631 346.709 395.572 346.719 401.503
C 346.724 404.399 346.519 407.425 349.225 409.228
C 351.818 410.956 355.599 410.126 358.519 410.32
C 358.488 413.529 359.363 417.253 358.66 420.414
C 356.312 421.085 353.433 420.944 351.006 420.953
C 348.876 420.96 346.652 420.75 344.587 420.211
C 332.341 417.013 334.86 402.045 334.853 392.499
C 334.851 389.635 334.865 386.765 334.848 383.907
C 332.153 383.541 329.37 383.812 326.657 383.717
C 326.566 380.073 326.502 376.404 326.706 372.764 Z"
opacity="1" fill="rgb(16,42,88)" fill-rule="evenodd" />
<path d="
M 331.44 197.103
C 331.55 196.471 331.518 196.85 331.437 195.96
C 332.883 195.625 334.503 195.893 335.985 195.919
C 339.275 195.978 342.564 196.105 345.855 196.147
C 352.644 196.234 359.467 196.993 366.245 196.882
C 368.685 196.842 371.102 195.902 373.528 195.998
C 374.555 196.038 375.53 197 376.355 197.544
C 378.125 198.712 381.128 199.044 382.51 200.612
C 380.952 204.319 376.384 207.348 373.336 209.927
C 372.327 210.78 370.824 212.442 369.637 212.868
C 367.793 210.149 366.247 207.201 364.298 204.532
C 363.544 203.5 362.597 201.981 361.431 201.393
C 359.221 200.278 355.481 200.613 353.03 200.468
C 348.859 200.222 344.683 200.225 340.508 200.09
C 337.481 199.992 334.391 199.7 331.383 200.108
C 331.433 199.106 331.351 198.107 331.44 197.103 Z"
opacity="1" fill="rgb(19,42,85)" fill-rule="evenodd" />
<path d="
M 346.438 450.579
C 347.317 447.935 348.804 445.566 351.388 444.292
C 355.996 442.021 364.92 442.851 366.313 449.007
C 366.107 449.424 363.567 449.469 363.041 449.438
C 362.071 448.209 361.201 447.08 359.734 446.426
C 358.755 445.989 357.704 445.847 356.639 445.834
C 347.981 445.729 347.3 459.82 355.509 460.972
C 356.616 461.127 357.792 461.012 358.874 460.735
C 361.077 460.17 361.648 458.354 363.314 457.168
C 364.233 457.38 365.157 457.502 365.924 458.087
C 363.518 463.676 355.3 465.298 350.336 461.979
C 346.704 459.55 345.306 454.689 346.438 450.579 Z"
opacity="1" fill="rgb(15,41,87)" fill-rule="evenodd" />
<path d="
M 351.847 187.045
C 353.283 183.53 355.999 180.343 357.999 177.123
C 359.774 174.266 361.601 170.604 364.584 168.844
C 365.839 168.734 368.177 170.61 368.897 171.558
C 367.755 173.706 366.858 175.658 366.097 177.994
C 366.779 178.513 367.681 178.799 368.418 179.296
C 368.967 180.795 368.821 182.817 368.394 184.322
C 367.644 184.798 366.631 184.888 366.015 185.545
C 364.404 187.259 364.095 189.955 362.312 191.606
C 361.503 191.769 360.262 191.023 359.526 190.716
C 357.235 189.76 353.531 189.273 351.747 187.586
C 351.78 187.406 351.814 187.225 351.847 187.045 Z"
opacity="1" fill="rgb(17,42,85)" fill-rule="evenodd" />
<path d="
M 353.486 144.6
C 353.558 144.032 353.523 144.36 353.576 143.616
C 354.256 142.93 356.045 143.29 356.98 143.352
C 360.717 143.599 364.403 144.556 367.748 146.256
C 376.967 150.944 383.195 159.522 385.09 169.666
C 385.818 173.564 385.104 177.243 385.167 181.108
C 388.039 181.347 390.889 182.249 393.744 182.686
C 395.619 182.974 397.823 182.987 399.424 184.1
C 399.93 184.999 399.362 186.448 399.165 187.411
C 398.626 190.045 398.38 193.619 396.745 195.826
C 394.419 196.459 390.576 195.11 388.203 194.722
C 381.25 193.583 374.009 192.601 367.236 190.668
C 367.093 186.347 369.607 181.239 372.179 177.901
C 373.05 177.886 373.756 178.508 374.563 178.791
C 376.478 179.462 378.813 180.023 380.839 180.135
C 381.162 179.603 380.973 178.336 381.032 177.682
C 381.253 175.197 381.232 172.592 380.848 170.126
C 379.45 161.124 373.057 152.814 364.49 149.423
C 360.9 148.003 357.428 147.805 353.697 147.243
C 353.557 146.357 353.447 145.499 353.486 144.6 Z"
opacity="1" fill="rgb(15,41,86)" fill-rule="evenodd" />
<path d="
M 364.952 392.097
C 367.888 372.283 393.092 365.337 407.523 377.767
C 414.252 383.562 416.768 392.31 415.581 400.934
C 413.127 418.755 391.42 426.705 376.608 418.02
C 367.472 412.663 363.433 402.355 364.952 392.097 Z
M 377.369 393.072
C 376.316 397.717 377.551 403.57 381.247 406.797
C 388.674 413.28 400.798 409.777 402.97 400.017
C 403.981 395.471 403.273 390.324 399.82 386.944
C 392.561 379.838 379.67 382.922 377.369 393.072 Z"
opacity="1" fill="rgb(16,42,87)" fill-rule="evenodd" />
<path d="
M 371.794 443.37
C 372.958 443.413 374.233 443.195 375.368 443.508
C 375.197 446.204 375.33 448.905 375.225 451.601
C 378.329 451.88 382.871 452.317 385.88 451.47
C 386.047 448.928 386.216 446.029 385.941 443.509
C 386.399 443.414 389.454 443.063 389.659 443.533
C 389.884 450.016 389.148 456.586 389.564 463.057
C 388.578 463.464 387.173 463.077 386.119 463.174
C 385.781 462.795 386.049 461.559 386.045 461.011
C 386.029 458.911 386.083 456.83 386.101 454.739
C 383.929 453.922 380.535 454.487 378.23 454.42
C 377.227 454.391 376.194 454.357 375.35 454.915
C 375.294 457.516 375.104 460.333 375.454 462.911
C 374.296 463.052 373.11 462.895 371.944 462.953
C 371.567 460.885 371.773 458.603 371.758 456.504
C 371.726 452.125 371.785 447.746 371.794 443.37 Z"
opacity="1" fill="rgb(17,45,94)" fill-rule="evenodd" />
<path d="
M 406.899 443.431
C 407.978 443.418 409.113 443.29 410.163 443.567
C 410.225 447.704 410.199 451.851 410.233 455.993
C 410.243 457.256 409.779 459.505 410.37 460.598
C 412.575 460.667 414.793 460.552 417.001 460.531
C 417.835 460.524 419.281 460.312 419.907 460.876
C 419.809 461.629 419.81 462.461 419.206 462.983
C 415.22 463.976 410.795 462.523 406.795 463.163
C 406.096 461.793 406.641 459.076 406.637 457.509
C 406.626 452.938 406.793 448.346 406.594 443.779
C 406.696 443.663 406.797 443.547 406.899 443.431 Z"
opacity="1" fill="rgb(17,39,86)" fill-rule="evenodd" />
<path d="
M 422.993 462.086
C 425.738 456.08 428.462 449.571 430.3 443.23
C 431.779 443.296 433.319 443.284 434.791 443.134
C 436.012 444.293 436.533 447.153 437.181 448.724
C 438.526 451.992 439.782 455.295 441.169 458.546
C 441.777 459.971 442.624 461.419 442.993 462.926
C 441.67 462.898 440.351 462.908 439.028 462.927
C 438.114 461.809 438.213 460.002 437.657 458.69
C 434.453 459.049 431.197 458.462 427.992 458.879
C 427.367 460.145 427.342 461.927 426.522 463.046
C 425.27 463.221 424.05 463.004 422.805 463.075
C 422.699 462.455 422.677 462.79 422.993 462.086 Z
M 429.41 455.041
C 429.213 455.667 429.311 455.338 429.119 456.029
C 430.99 456.444 433.016 456.17 434.918 456.139
C 435.21 456.134 436.293 456.333 436.43 456.039
C 435.387 453.918 434.687 451.574 433.886 449.341
C 433.623 448.605 433.21 447.09 432.528 446.709
C 431.104 449.225 430.456 452.34 429.41 455.041 Z"
opacity="1" fill="rgb(18,44,92)" fill-rule="evenodd" />
<path d="
M 425.248 372.693
C 428.568 371.728 433.172 372.184 436.628 372.333
C 436.975 374.332 436.892 376.489 436.923 378.516
C 437.933 378.005 438.565 376.461 439.444 375.683
C 442.098 373.335 445.234 371.863 448.781 371.53
C 449.859 371.428 451.339 371.103 452.364 371.525
C 452.289 375.615 451.71 380.528 452.464 384.538
C 451.988 384.871 449.475 384.351 448.768 384.355
C 446.245 384.371 443.859 384.757 441.771 386.271
C 437.681 389.236 437.244 393.884 437.128 398.492
C 436.944 405.744 437.139 413.016 437.095 420.268
C 434.691 420.636 431.932 420.264 429.497 420.242
C 428.179 420.231 426.555 420.498 425.284 420.199
C 425.747 404.405 425.436 388.493 425.248 372.693 Z"
opacity="1" fill="rgb(17,42,88)" fill-rule="evenodd" />
<path d="
M 448.003 444.109
C 448.015 443.904 448.026 443.699 448.038 443.494
C 449.423 442.987 451 443.234 452.462 443.247
C 456.008 443.278 462.541 442.48 463.331 447.343
C 463.535 448.602 463.375 450.148 462.667 451.234
C 462.29 451.811 461.363 452.408 461.203 453.003
C 464.555 454.906 465.662 460.135 461.697 462.254
C 457.953 464.255 451.96 463.3 447.859 463.163
C 447.837 456.926 447.226 450.302 448.003 444.109 Z
M 451.525 447.114
C 451.375 448.595 451.544 450.17 451.576 451.657
C 453.481 451.791 455.965 452.197 457.819 451.646
C 460.079 450.974 460.031 448.205 458.893 446.655
C 457.086 445.504 453.627 445.722 451.582 446.088
C 451.531 446.87 451.548 446.528 451.525 447.114 Z
M 451.476 454.448
C 451.486 456.472 451.317 458.49 451.457 460.515
C 453.668 460.564 457.14 461.217 459.157 460.039
C 461.298 458.789 460.683 455.201 458.624 454.222
C 456.939 454.127 452.868 453.569 451.476 454.448 Z"
opacity="1" fill="rgb(15,46,93)" fill-rule="evenodd" />
<path d="
M 456.747 411.998
C 459.391 410.08 461.937 408.025 464.602 406.141
C 465.554 405.973 466.6 407.83 467.37 408.463
C 469.184 409.957 471.573 411.076 473.902 411.416
C 476.093 411.736 478.614 411.692 480.528 410.433
C 482.404 409.2 483.371 406.353 481.736 404.477
C 479.763 402.214 475.692 401.876 472.961 401.182
C 465.896 399.385 459.199 396.412 458.683 388.152
C 458.568 386.305 458.735 384.414 459.237 382.632
C 462.152 372.283 474.549 369.423 483.703 372.787
C 486.419 373.786 489.015 375.554 490.934 377.718
C 491.441 378.29 492.349 379.089 492.454 379.882
C 490.754 382.344 486.857 385.717 483.99 386.626
C 481.988 383.367 478.412 381.64 474.638 382.104
C 472.004 382.429 468.76 385.059 470.726 387.941
C 472.688 390.819 477.906 391.246 480.998 392.109
C 488.796 394.286 495.035 398.841 494.405 407.713
C 494.252 409.857 493.68 411.916 492.645 413.805
C 487.544 423.115 473.144 424.091 464.554 419.657
C 461.751 418.21 457.447 415.316 456.747 411.998 Z"
opacity="1" fill="rgb(14,42,86)" fill-rule="evenodd" />

</svg>